<?xml version="1.0" standalone="no"?>
<!DOCTYPE svg PUBLIC "-//W3C//DTD SVG 20010904//EN"
 "http://www.w3.org/TR/2001/REC-SVG-20010904/DTD/svg10.dtd">
<svg version="1.0" xmlns="http://www.w3.org/2000/svg"
 width="1024.000000pt" height="1024.000000pt" viewBox="0 0 1024.000000 1024.000000"
 preserveAspectRatio="xMidYMid meet">

<g transform="translate(0.000000,1024.000000) scale(0.100000,-0.100000)"
fill="#000000" stroke="none">
<path d="M6755 8299 c-193 -28 -376 -124 -501 -262 -50 -55 -101 -132 -73
-111 164 128 268 163 504 170 l150 5 -85 -34 c-138 -55 -190 -80 -300 -147
-137 -83 -236 -128 -318 -146 -163 -34 -317 29 -368 152 -31 74 -11 201 42
271 41 54 21 49 -25 -6 -23 -27 -54 -75 -69 -108 -24 -52 -27 -69 -27 -168 0
-103 2 -114 32 -178 51 -106 163 -201 287 -241 19 -7 19 -7 0 -21 -11 -7 -61
-31 -110 -52 -87 -37 -92 -38 -214 -38 -142 0 -185 14 -260 81 -67 61 -85 104
-85 209 0 82 3 97 32 155 l32 65 -40 -44 c-191 -213 -118 -546 150 -685 71
-37 73 -40 50 -49 -39 -16 -248 -21 -312 -8 -88 19 -172 66 -217 122 -58 74
-73 123 -68 221 4 81 15 111 64 188 9 14 -5 3 -31 -25 -27 -27 -62 -79 -79
-115 -29 -60 -31 -73 -31 -175 0 -99 3 -115 27 -165 79 -161 221 -246 452
-271 143 -16 290 0 506 55 140 36 464 137 575 180 29 12 -208 -118 -274 -150
-386 -184 -779 -212 -1053 -75 -43 21 -75 35 -73 30 3 -4 33 -29 68 -54 130
-98 277 -153 425 -157 45 -1 82 -5 82 -9 0 -4 -40 -28 -88 -53 -324 -167 -675
-168 -868 -2 -90 77 -135 224 -101 326 l16 45 -19 -23 c-29 -35 -50 -116 -50
-189 0 -127 66 -258 175 -346 131 -106 259 -142 495 -142 138 1 167 4 260 29
58 16 119 35 135 43 l30 14 -30 -26 c-44 -37 -260 -142 -330 -159 -221 -56
-447 -36 -579 50 l-41 27 25 -28 c36 -39 139 -111 191 -133 24 -10 82 -29 129
-42 119 -33 343 -34 474 -2 207 51 433 198 601 389 103 117 106 118 36 18
-101 -144 -271 -320 -384 -397 -140 -95 -344 -167 -473 -168 -37 0 -118 12
-169 26 -54 14 38 -28 110 -51 147 -45 340 -43 481 5 125 43 260 127 368 230
l58 55 -86 -172 c-47 -95 -86 -175 -86 -178 0 -3 13 1 28 9 111 57 389 83 557
51 226 -42 432 -149 640 -331 l89 -79 -73 85 c-221 256 -280 645 -155 1024 37
110 129 288 196 377 94 124 255 270 373 339 32 19 24 8 -41 -52 -172 -162
-303 -409 -366 -689 -20 -92 -23 -130 -23 -329 0 -198 3 -239 24 -340 13 -63
30 -133 37 -154 28 -77 4 -46 -49 65 -63 132 -84 193 -102 292 l-13 72 -1 -70
c-1 -87 35 -241 89 -378 40 -102 109 -226 208 -373 129 -191 173 -325 178
-549 2 -104 1 -141 -6 -120 -18 57 -158 330 -210 410 -54 81 -159 193 -240
255 l-45 34 55 -59 c66 -71 140 -188 180 -282 48 -116 78 -303 48 -303 -26 1
-169 79 -250 136 -51 36 -168 145 -303 280 -240 240 -313 297 -491 380 -53 25
-129 54 -168 64 l-71 18 60 4 c207 11 415 -51 612 -184 l82 -55 -58 71 c-198
241 -417 366 -641 366 -106 0 -178 -21 -209 -62 -72 -91 -163 -186 -232 -242
-124 -98 -222 -148 -444 -221 -110 -37 -209 -71 -220 -77 -14 -6 -13 -3 5 11
14 11 54 33 90 48 36 14 68 29 73 33 12 10 -204 -17 -271 -34 -131 -34 -291
-121 -389 -209 -88 -81 -176 -207 -214 -309 l-20 -53 5 47 c7 62 39 156 84
248 53 107 170 224 273 273 81 38 178 67 228 67 17 0 31 5 31 10 0 6 -10 10
-22 10 -13 0 -68 5 -122 10 -351 34 -784 -102 -1046 -329 l-44 -39 -56 48
c-80 68 -327 233 -417 278 -148 74 -266 102 -429 102 -122 0 -285 -27 -453
-74 -126 -36 -200 -53 -191 -43 3 3 84 36 180 75 187 74 316 109 445 121 l80
7 -53 12 c-64 15 -309 16 -382 2 -76 -14 -73 -6 7 19 234 72 436 67 636 -14
101 -40 219 -117 290 -187 37 -38 67 -65 67 -62 0 17 -149 200 -213 261 -125
121 -301 217 -466 253 -143 32 -448 24 -577 -15 -11 -4 7 8 38 24 98 53 197
75 333 76 66 0 138 -3 160 -7 33 -6 36 -6 15 3 -57 24 -161 41 -252 41 -156 0
-229 -13 -432 -78 -95 -31 -123 -35 -210 -36 -93 0 -103 2 -165 34 -112 57
-156 138 -149 273 2 53 10 84 33 128 35 70 126 158 187 181 l43 16 -50 -4
c-83 -8 -152 -34 -233 -89 -126 -86 -221 -225 -256 -377 -21 -87 -21 -313 0
-400 19 -82 89 -227 148 -308 113 -153 329 -252 551 -253 156 0 291 37 516
141 194 91 259 117 352 141 221 56 416 26 611 -95 42 -27 78 -51 81 -55 2 -4
-38 7 -90 25 -57 20 -129 36 -187 42 -112 12 -100 12 -271 1 -173 -12 -278
-39 -504 -130 -240 -96 -325 -120 -453 -126 -180 -9 -332 33 -463 127 -77 57
-77 58 10 -62 78 -107 141 -164 230 -210 117 -61 164 -73 298 -73 129 0 211
19 320 71 l50 25 -40 -37 c-113 -103 -226 -169 -326 -190 -126 -27 -259 -3
-347 62 -33 24 -31 21 13 -25 144 -150 389 -173 618 -60 89 44 131 72 272 179
117 89 246 157 365 195 106 33 290 45 396 25 62 -11 214 -65 214 -76 0 -2 -27
-37 -59 -77 -118 -144 -203 -312 -251 -491 -24 -89 -90 -531 -90 -605 0 -11
-19 -13 -92 -9 -80 4 -105 9 -178 41 -114 49 -151 49 -200 0 -29 -30 -44 -61
-74 -149 -42 -126 -139 -326 -212 -434 -26 -39 -73 -94 -103 -121 -46 -41 -62
-49 -93 -49 -33 0 -41 5 -59 34 -28 48 -69 63 -128 47 -57 -15 -139 -76 -191
-142 -42 -53 -107 -176 -97 -185 9 -10 291 -35 322 -28 17 3 60 23 96 45 68
41 95 45 167 29 40 -10 45 -8 62 12 40 51 61 72 34 33 -66 -95 -256 -325 -283
-344 -17 -12 -53 -29 -81 -37 -52 -15 -90 -56 -90 -96 0 -21 -39 -33 -75 -24
-14 4 -32 19 -42 34 -24 40 -43 52 -77 51 -111 -3 -275 -147 -357 -315 -18
-35 -30 -67 -27 -69 3 -3 95 -6 205 -8 l199 -2 55 42 c72 55 95 63 192 63 131
1 189 34 257 150 35 59 203 248 333 376 153 149 257 205 542 289 297 89 430
159 572 303 203 206 375 480 522 830 24 56 45 101 47 99 7 -7 -37 -161 -72
-250 -78 -202 -206 -415 -349 -580 -42 -49 -75 -91 -73 -93 3 -2 40 -13 84
-25 100 -27 260 -29 354 -5 112 28 223 91 316 179 83 78 127 135 230 291 l54
81 -43 8 c-23 4 -114 6 -202 4 -175 -5 -253 -21 -369 -77 l-61 -30 40 36 c49
44 180 109 260 129 89 23 220 29 316 16 46 -7 175 -34 287 -62 388 -95 584
-126 867 -136 260 -9 498 19 749 88 124 34 192 61 327 129 l95 48 55 -15 c69
-18 142 -12 307 28 217 52 512 119 636 144 177 37 241 32 265 -22 17 -37 14
-58 -24 -149 -96 -232 -158 -318 -261 -365 -58 -26 -63 -30 -79 -78 -17 -51
-17 -51 -60 -51 -37 0 -51 7 -90 40 -36 31 -54 40 -83 40 -90 0 -208 -96 -289
-235 -44 -74 -83 -178 -83 -220 0 -25 0 -25 73 -20 302 24 344 34 425 101 85
70 122 84 223 81 74 -1 90 2 135 25 79 41 118 92 139 179 20 80 116 279 250
513 74 130 80 145 83 205 2 37 -1 77 -7 91 -10 25 -10 25 -10 -7 -1 -45 -19
-79 -48 -92 -52 -24 -101 -4 -90 38 3 13 -3 22 -19 30 -13 6 -45 38 -71 71
-26 34 -57 63 -71 67 -32 8 -229 -3 -447 -24 -221 -21 -647 -24 -725 -4 -54
14 -166 65 -205 94 -19 15 -18 17 37 42 72 33 173 54 263 56 106 1 38 18 -105
25 -189 10 -329 -33 -439 -135 -28 -26 -50 -45 -49 -42 35 73 82 142 125 181
113 103 241 121 523 71 306 -54 718 -120 920 -146 228 -29 288 -45 334 -85 72
-64 153 -273 206 -532 26 -126 25 -164 -5 -213 -31 -49 -33 -111 -6 -164 37
-71 3 -119 -130 -186 -47 -24 -90 -49 -96 -57 -30 -38 61 -461 102 -475 19 -6
121 95 194 189 85 113 121 189 131 277 8 76 16 93 76 174 24 32 48 73 53 92
11 40 -1 110 -27 162 -11 21 -27 72 -36 113 -23 109 -93 534 -101 612 -9 88
-45 146 -110 178 -50 24 -71 26 -775 88 -169 14 -205 20 -203 32 1 8 15 49 30
90 24 67 27 88 27 205 0 93 -5 148 -18 194 -31 114 -109 249 -203 351 l-49 53
4 -107 c4 -98 -5 -302 -13 -294 -2 2 -8 66 -15 143 -6 77 -22 217 -35 310 -45
309 -52 582 -19 765 26 147 104 348 161 419 l20 24 22 -36 c52 -85 159 -138
284 -142 62 -1 82 -6 100 -22 12 -12 78 -57 146 -102 193 -127 200 -134 201
-209 0 -86 56 -142 141 -142 25 0 49 4 55 9 5 6 27 5 56 -1 41 -10 51 -8 95
13 45 23 49 28 72 93 13 39 38 92 57 119 35 51 43 92 24 128 -15 26 -30 24
-30 -5 0 -13 -8 -34 -18 -47 l-19 -22 -6 33 c-9 41 -24 60 -48 60 -14 0 -19 7
-19 25 0 28 -3 29 -32 14 -54 -29 -56 -151 -1 -170 8 -3 7 -11 -6 -28 l-18
-23 -21 34 c-44 71 -41 146 10 203 26 30 27 35 11 35 -10 0 -28 -7 -40 -15
-17 -12 -22 -13 -25 -2 -4 17 -262 346 -267 341 -2 -1 8 -25 23 -51 l26 -48
-40 45 c-22 25 -40 48 -40 51 0 3 -23 41 -51 84 -28 42 -52 84 -53 94 -2 11
-17 18 -49 23 -76 11 -82 23 -12 26 69 3 108 -8 144 -41 28 -26 28 -25 -23 73
-56 110 -81 140 -116 140 -16 0 -50 7 -76 16 -26 9 -60 14 -76 12 -35 -6 -36
-6 80 72 50 34 104 76 118 93 l26 31 75 -77 c70 -74 91 -107 142 -232 l13 -30
13 25 c23 43 38 146 30 205 -9 78 -63 178 -142 264 l-68 75 3 57 c5 81 -19
154 -70 216 -24 28 -48 52 -54 52 -6 1 -14 -18 -18 -41 -4 -24 -11 -60 -17
-81 l-10 -38 -27 19 c-80 57 -205 104 -310 117 -52 7 -55 9 -89 64 -20 31 -38
58 -40 61 -10 11 -45 -47 -60 -100 l-16 -58 -71 39 c-234 126 -628 196 -891
158z m1177 -242 c100 -95 123 -131 112 -173 l-6 -24 -42 37 c-22 21 -41 40
-41 43 0 4 -16 21 -36 38 -20 18 -46 53 -57 79 -22 53 -35 93 -30 93 2 0 47
-42 100 -93z m-442 -7 c25 -6 96 -27 159 -48 108 -35 115 -39 129 -72 8 -19
30 -57 50 -84 28 -38 32 -47 16 -43 -40 12 -145 27 -299 43 -319 32 -623 -6
-1088 -137 -60 -17 -111 -28 -115 -25 -3 3 -1 6 5 6 6 0 71 29 144 64 228 108
422 172 592 195 87 12 340 13 429 2 87 -11 60 5 -60 33 -148 35 -229 46 -361
46 -63 0 -111 3 -108 6 29 29 399 39 507 14z m725 -95 c100 -100 35 -186 -185
-244 -47 -13 -98 -27 -114 -32 -47 -15 -42 -2 11 24 74 38 169 112 204 159 27
37 30 49 26 91 -2 26 0 47 5 47 5 0 29 -20 53 -45z m135 -75 c28 -55 26 -128
-5 -189 -30 -60 -91 -106 -216 -165 -111 -51 -198 -115 -274 -199 -56 -63 -61
-56 -19 26 58 113 129 192 264 294 165 126 207 180 197 255 -5 35 -3 37 14 27
10 -5 28 -27 39 -49z m-607 -89 c49 -4 92 -12 95 -18 4 -5 14 -12 22 -15 8 -3
-23 -8 -70 -12 -267 -24 -458 -85 -850 -274 -321 -154 -366 -174 -450 -203
-48 -16 -136 -41 -196 -56 -99 -24 -126 -27 -289 -27 -162 0 -189 3 -275 26
-52 14 -114 34 -138 45 l-42 18 157 0 c97 0 179 5 213 13 149 36 253 73 455
159 512 219 673 279 863 318 156 31 336 41 505 26z m-668 -420 c-6 -4 -50 -38
-100 -76 -182 -136 -347 -294 -493 -470 -54 -65 -16 0 58 100 121 164 271 300
440 399 92 54 114 65 95 47z m1185 -86 c24 -14 24 -14 3 -15 -28 0 -53 10 -53
21 0 13 21 10 50 -6z m-1820 -513 c0 -5 -7 -17 -15 -28 -14 -18 -14 -17 -4 9
12 27 19 34 19 19z m-3560 -3382 c0 -20 -119 -103 -222 -156 -112 -56 -141
-65 -63 -20 25 15 68 54 96 88 73 88 87 97 142 98 26 0 47 -4 47 -10z m-459
-413 c-10 -9 -11 -8 -5 6 3 10 9 15 12 12 3 -3 0 -11 -7 -18z"/>
<path d="M2387 6260 c-185 -33 -326 -120 -431 -262 -32 -45 -29 -46 23 -14
213 135 551 155 808 47 255 -106 515 -398 610 -686 l23 -70 -6 90 c-28 430
-293 777 -670 876 -89 23 -280 33 -357 19z"/>
<path d="M4560 1984 c-326 -8 -924 -26 -1140 -34 -430 -18 -1063 -49 -1067
-54 -8 -8 802 -38 1552 -58 613 -16 2442 -16 2950 0 1315 42 1569 52 1558 61
-8 7 -671 36 -1523 67 -361 13 -2007 26 -2330 18z"/>
</g>
</svg>
